# xmcd CD database file generated by OrangeCD 5.2
#
# Track frame offsets:
#	150
#	17668
#	29396
#	45118
#	57860
#	75594
#	91161
#	102417
#	114803
#	130479
#	145411
#	158983
#	170452
#	183449
#	200023
#	213878
#
# Disc length: 3162 seconds
#
# Revision: 0
# Processed by: cddbd v1.5.1PL0 Copyright (c) Steve Scherf et al.
# Submitted via: OrangeCD 5.2
#
DISCID=ce0c5810
DTITLE=Bo Göran Svensson - För en gångs skull
DYEAR=2001
DGENRE=Country
TTITLE0=Du har kvar din plats i kön
TTITLE1=Marie, låt bli!
TTITLE2=Stopp och belägg!
TTITLE3=Bind mig på järnvägsspår!
TTITLE4=Sanning, saga och svek
TTITLE5=Jag fick aldrig se..
TTITLE6=Om det regna
TTITLE7=Kulturetablisemang
TTITLE8=Man får väl älska vem man vill
TTITLE9=Mitt i veckan lågprisäventyr
TTITLE10=Brukshundklubben
TTITLE11=När jag andas ut och in
TTITLE12=Fiddlin' The Boogie
TTITLE13=Om fröken Fredriksson kom
TTITLE14=Manana
TTITLE15=För en gångs skull
EXTD=
EXTT0=
EXTT1=
EXTT2=
EXTT3=
EXTT4=
EXTT5=
EXTT6=
EXTT7=
EXTT8=
EXTT9=
EXTT10=
EXTT11=
EXTT12=
EXTT13=
EXTT14=
EXTT15=
PLAYORDER=
